<?xml version="1.0" encoding="UTF-8"?>
<svg xmlns="http://www.w3.org/2000/svg" xmlns:xlink="http://www.w3.org/1999/xlink" width="64px" height="64px" viewBox="0 0 64 64" version="1.1">
<g id="surface1">
<path style=" stroke:none;fill-rule:nonzero;fill:rgb(82.352942%,86.274511%,0%);fill-opacity:1;" d="M 55.796875 39.460938 C 59.125 42.640625 59.125 48.453125 55.796875 51.636719 C 52.613281 54.96875 46.808594 54.964844 43.621094 51.640625 L 43.578125 51.597656 L 43.578125 33.449219 L 49.425781 33.449219 L 55.789062 39.460938 Z M 55.796875 39.460938 "/>
<path style=" stroke:none;fill-rule:nonzero;fill:rgb(0%,69.411767%,66.274512%);fill-opacity:1;" d="M 42.371094 52.246094 L 42.410156 52.285156 C 42.015625 63.886719 25.636719 64.859375 23.910156 53.371094 L 23.910156 33.8125 L 42.367188 52.25 Z M 42.371094 52.246094 "/>
<path style=" stroke:none;fill-rule:nonzero;fill:rgb(82.352942%,86.274511%,0%);fill-opacity:1;" d="M 41.929688 33.449219 L 41.929688 49.601562 L 25.757812 33.449219 Z M 41.929688 33.449219 "/>
<path style=" stroke:none;fill-rule:nonzero;fill:rgb(0%,69.411767%,66.274512%);fill-opacity:1;" d="M 22.191406 23.117188 L 22.191406 41.679688 L 13.257812 41.679688 C 8.148438 41.671875 3.984375 37.503906 3.976562 32.390625 C 3.984375 27.285156 8.148438 23.125 13.257812 23.117188 Z M 22.191406 23.117188 "/>
<path style=" stroke:none;fill-rule:nonzero;fill:rgb(82.352942%,86.274511%,0%);fill-opacity:1;" d="M 55.773438 13.253906 C 59.085938 16.429688 59.117188 22.238281 55.78125 25.433594 L 49.425781 31.449219 L 43.578125 31.449219 L 43.578125 13.277344 C 46.757812 9.933594 52.578125 9.925781 55.773438 13.253906 "/>
<path style=" stroke:none;fill-rule:nonzero;fill:rgb(82.352942%,86.274511%,0%);fill-opacity:1;" d="M 41.929688 15.277344 L 41.929688 31.449219 L 25.785156 31.449219 Z M 41.929688 15.277344 "/>
<path style=" stroke:none;fill-rule:nonzero;fill:rgb(0%,69.411767%,66.274512%);fill-opacity:1;" d="M 42.410156 12.179688 L 42.410156 12.597656 L 42.371094 12.636719 L 23.914062 30.785156 L 23.914062 11.425781 C 25.46875 0.148438 42.035156 0.757812 42.410156 12.179688 "/>
</g>
</svg>
